<svg width="121" height="119" viewBox="0 0 121 119" fill="none" xmlns="http://www.w3.org/2000/svg">
<path d="M83.369 119V72.947H99.052L101.398 55.0441H83.369V43.6201C83.369 38.437 84.8344 34.9001 92.3902 34.9001H102.03V18.8879C97.3633 18.401 92.6732 18.1649 87.9804 18.1806C74.0856 18.1806 64.5737 26.5238 64.5737 41.8483V55.0441H48.8571V72.947H64.5737V119H6.72222C4.93938 119 3.22955 118.303 1.96889 117.064C0.708232 115.824 0 114.142 0 112.389V6.61111C0 4.85774 0.708232 3.17617 1.96889 1.93635C3.22955 0.696526 4.93938 0 6.72222 0H114.278C116.061 0 117.77 0.696526 119.031 1.93635C120.292 3.17617 121 4.85774 121 6.61111V112.389C121 114.142 120.292 115.824 119.031 117.064C117.77 118.303 116.061 119 114.278 119H83.369Z" fill="white"/>
</svg>
