<svg width="123" height="123" viewBox="0 0 123 123" fill="none" xmlns="http://www.w3.org/2000/svg">
<path d="M35.525 0H86.975C106.575 0 122.5 15.925 122.5 35.525V86.975C122.5 96.3968 118.757 105.433 112.095 112.095C105.433 118.757 96.3968 122.5 86.975 122.5H35.525C15.925 122.5 0 106.575 0 86.975V35.525C0 26.1032 3.7428 17.0673 10.405 10.405C17.0673 3.7428 26.1032 0 35.525 0ZM34.3 12.25C28.452 12.25 22.8435 14.5731 18.7083 18.7083C14.5731 22.8435 12.25 28.452 12.25 34.3V88.2C12.25 100.389 22.1113 110.25 34.3 110.25H88.2C94.048 110.25 99.6565 107.927 103.792 103.792C107.927 99.6565 110.25 94.048 110.25 88.2V34.3C110.25 22.1113 100.389 12.25 88.2 12.25H34.3ZM93.4063 21.4375C95.4368 21.4375 97.3842 22.2441 98.82 23.68C100.256 25.1158 101.063 27.0632 101.063 29.0938C101.063 31.1243 100.256 33.0717 98.82 34.5075C97.3842 35.9434 95.4368 36.75 93.4063 36.75C91.3757 36.75 89.4283 35.9434 87.9925 34.5075C86.5566 33.0717 85.75 31.1243 85.75 29.0938C85.75 27.0632 86.5566 25.1158 87.9925 23.68C89.4283 22.2441 91.3757 21.4375 93.4063 21.4375ZM61.25 30.625C69.3723 30.625 77.1618 33.8516 82.9052 39.5949C88.6485 45.3382 91.875 53.1277 91.875 61.25C91.875 69.3723 88.6485 77.1618 82.9052 82.9052C77.1618 88.6485 69.3723 91.875 61.25 91.875C53.1277 91.875 45.3382 88.6485 39.5949 82.9052C33.8516 77.1618 30.625 69.3723 30.625 61.25C30.625 53.1277 33.8516 45.3382 39.5949 39.5949C45.3382 33.8516 53.1277 30.625 61.25 30.625ZM61.25 42.875C56.3767 42.875 51.7029 44.8109 48.2569 48.2569C44.8109 51.7029 42.875 56.3767 42.875 61.25C42.875 66.1234 44.8109 70.7971 48.2569 74.2431C51.7029 77.6891 56.3767 79.625 61.25 79.625C66.1234 79.625 70.7971 77.6891 74.2431 74.2431C77.6891 70.7971 79.625 66.1234 79.625 61.25C79.625 56.3767 77.6891 51.7029 74.2431 48.2569C70.7971 44.8109 66.1234 42.875 61.25 42.875Z" fill="white"/>
</svg>
