<svg width="145" height="118" viewBox="0 0 145 118" fill="none" xmlns="http://www.w3.org/2000/svg">
<path d="M145 13.8824C139.663 16.3118 133.91 17.9082 127.949 18.6718C134.049 14.9929 138.762 9.16235 140.98 2.15176C135.227 5.62235 128.85 8.05177 122.127 9.44C116.652 3.47059 108.958 0 100.225 0C83.9364 0 70.6286 13.3271 70.6286 29.7776C70.6286 32.1376 70.9058 34.4282 71.391 36.58C46.7161 35.3306 24.7443 23.4612 10.1195 5.48353C7.55497 9.85647 6.09943 14.9929 6.09943 20.4071C6.09943 30.7494 11.2978 39.9118 19.338 45.1176C14.4168 45.1176 9.84226 43.7294 5.82218 41.6471V41.8553C5.82218 56.2929 16.0803 68.3706 29.6654 71.0776C25.3038 72.273 20.7248 72.4393 16.2882 71.5635C18.1708 77.4807 21.8577 82.6584 26.8307 86.3686C31.8036 90.0788 37.8126 92.135 44.0129 92.2482C33.5027 100.581 20.4746 105.085 7.06979 105.02C4.71319 105.02 2.3566 104.881 0 104.604C13.1692 113.072 28.8337 118 45.6071 118C100.225 118 130.237 72.6047 130.237 33.2482C130.237 31.9294 130.237 30.68 130.167 29.3612C135.989 25.1965 140.98 19.9212 145 13.8824Z" fill="white"/>
</svg>
